<svg xmlns="http://www.w3.org/2000/svg" data-name="Layer 1" viewBox="0 0 40 40" x="0px" y="0px"><title>Floppy-disk</title><path d="M32,0H12V1H5A4,4,0,0,0,1,4.92V36.08A4,4,0,0,0,5,40H35a4,4,0,0,0,4-3.92V5.45L34.4,1H32V0ZM14,13V2H30V13Zm0,2H30a2,2,0,0,0,2-2V3h1.6L37,6.3V36.08A2,2,0,0,1,35,38H33V20a2,2,0,0,0-2-2H9a2,2,0,0,0-2,2V38H5a2,2,0,0,1-2-1.92V4.92A2,2,0,0,1,5,3h7V13a2,2,0,0,0,2,2ZM9,38V20H31V38Z"></path><path d="M23,29a1,1,0,1,0,1,1,1,1,0,0,0-1-1Z"></path><path d="M27,4H23a1,1,0,0,0-1,1v5a1,1,0,0,0,1,1h4a1,1,0,0,0,1-1V5a1,1,0,0,0-1-1ZM24,9V6h2V9Z"></path><path d="M20,29H11a1,1,0,0,0,0,2h9a1,1,0,0,0,0-2Z"></path><path d="M18,25H11a1,1,0,0,0,0,2h7a1,1,0,0,0,0-2Z"></path></svg>